<?xml version="1.0" encoding="utf-8"?>
<!-- Generator: Adobe Illustrator 17.0.2, SVG Export Plug-In . SVG Version: 6.00 Build 0)  -->
<!DOCTYPE svg PUBLIC "-//W3C//DTD SVG 1.1//EN" "http://www.w3.org/Graphics/SVG/1.1/DTD/svg11.dtd">
<svg version="1.1" id="Layer_1" xmlns="http://www.w3.org/2000/svg" xmlns:xlink="http://www.w3.org/1999/xlink" x="0px" y="0px"
	 width="15.981px" height="16px" viewBox="0 0 15.981 16" enable-background="new 0 0 15.981 16" xml:space="preserve">
<path fill="#4DD282" d="M13.647,2.343c-3.111-3.111-8.202-3.111-11.314,0s-3.111,8.202,0,11.314s8.202,3.111,11.314,0
	S16.758,5.454,13.647,2.343z M10.819,9.212c0.444,0.444,0.444,1.172,0,1.616s-1.172,0.444-1.616,0L7.99,9.616l-1.212,1.212
	c-0.444,0.444-1.172,0.444-1.616,0s-0.444-1.172,0-1.616L6.374,8L5.162,6.788c-0.444-0.444-0.444-1.172,0-1.616s1.172-0.444,1.616,0
	L7.99,6.384l1.212-1.212c0.444-0.444,1.172-0.444,1.616,0s0.444,1.172,0,1.616L9.607,8L10.819,9.212z"/>
</svg>
