<?xml version="1.0" encoding="utf-8"?>
<!-- Generator: Adobe Illustrator 17.0.2, SVG Export Plug-In . SVG Version: 6.00 Build 0)  -->
<!DOCTYPE svg PUBLIC "-//W3C//DTD SVG 1.1//EN" "http://www.w3.org/Graphics/SVG/1.1/DTD/svg11.dtd">
<svg version="1.1" id="Layer_1" xmlns="http://www.w3.org/2000/svg" xmlns:xlink="http://www.w3.org/1999/xlink" x="0px" y="0px"
	 width="18.984px" height="15.875px" viewBox="0 0 18.984 15.875" enable-background="new 0 0 18.984 15.875" xml:space="preserve">
<g>
	<g>
		<path fill="#FD7037" d="M14.531,15.875H2.5c-1.378,0-2.5-1.121-2.5-2.5V2.5C0,1.121,1.122,0,2.5,0h7.11c0.829,0,1.5,0.672,1.5,1.5
			S10.438,3,9.61,3H3v9.875h11.031v-0.834c0-0.828,0.671-1.5,1.5-1.5s1.5,0.672,1.5,1.5v1.334
			C17.031,14.754,15.91,15.875,14.531,15.875z"/>
	</g>
	<g>
		<path fill="#FD7037" d="M9.68,11.095c-0.384,0-0.768-0.146-1.061-0.439L5.127,7.163c-0.586-0.586-0.586-1.535,0-2.121
			s1.535-0.586,2.121,0L9.68,7.474l6.744-6.744c0.586-0.586,1.535-0.586,2.121,0s0.586,1.535,0,2.121l-7.805,7.805
			C10.447,10.948,10.063,11.095,9.68,11.095z"/>
	</g>
</g>
</svg>
