<?xml version="1.0" encoding="utf-8"?>
<!-- Generator: Adobe Illustrator 17.0.2, SVG Export Plug-In . SVG Version: 6.00 Build 0)  -->
<!DOCTYPE svg PUBLIC "-//W3C//DTD SVG 1.1//EN" "http://www.w3.org/Graphics/SVG/1.1/DTD/svg11.dtd">
<svg version="1.1" id="Layer_1" xmlns="http://www.w3.org/2000/svg" xmlns:xlink="http://www.w3.org/1999/xlink" x="0px" y="0px"
	 width="87.285px" height="97.774px" viewBox="0 0 87.285 97.774" enable-background="new 0 0 87.285 97.774" xml:space="preserve">
<g>
	<g>
		<path fill="#137CC1" d="M64.06,19.25C53.393,12.874,47.377,6.118,45.251,3.166c0,0-0.75-1.166-1.608-1.166
			c-0.852,0-1.55,1.169-1.55,1.169c-2.095,2.95-8.248,9.74-18.965,16.142C11.008,26.592,2,38.96,2,54.131
			c0,23,18.644,41.644,41.64,41.644c23.002,0,41.645-18.644,41.645-41.644C85.286,38.922,76.24,26.519,64.06,19.25z"/>
		<path fill="#FFFFFF" d="M43.641,97.774C19.577,97.774,0,78.196,0,54.131c0-14.564,8.261-28.222,22.098-36.535
			c12.102-7.229,17.59-14.507,18.33-15.537C40.738,1.568,41.871,0,43.643,0c1.75,0,2.898,1.492,3.257,2.032
			c1.049,1.447,6.549,8.545,18.188,15.501c13.9,8.297,22.199,21.979,22.198,36.598C87.285,78.196,67.706,97.774,43.641,97.774z
			 M43.673,4.397c-2.88,4.023-9.693,10.761-19.52,16.63C11.348,28.721,4,40.788,4,54.131C4,75.99,21.782,93.774,43.641,93.774
			c21.86,0,39.645-17.784,39.645-39.644c0.001-13.395-7.38-25.482-20.25-33.164C50.789,13.648,44.851,6.018,43.673,4.397z"/>
	</g>
</g>
</svg>
