<?xml version="1.0" encoding="utf-8"?>
<!-- Generator: Adobe Illustrator 17.0.2, SVG Export Plug-In . SVG Version: 6.00 Build 0)  -->
<!DOCTYPE svg PUBLIC "-//W3C//DTD SVG 1.1//EN" "http://www.w3.org/Graphics/SVG/1.1/DTD/svg11.dtd">
<svg version="1.1" id="Layer_1" xmlns="http://www.w3.org/2000/svg" xmlns:xlink="http://www.w3.org/1999/xlink" x="0px" y="0px"
	 width="16px" height="15.99px" viewBox="0 0 16 15.99" enable-background="new 0 0 16 15.99" xml:space="preserve">
<path fill="#4DD282" d="M8-0.01c-4.4,0-8,3.6-8,8s3.6,8,8,8s8-3.6,8-8S12.4-0.01,8-0.01 M10.857,9.133H9.143v1.714
	c0,0.629-0.514,1.143-1.143,1.143s-1.143-0.514-1.143-1.143V9.133H5.143C4.514,9.133,4,8.619,4,7.99s0.514-1.143,1.143-1.143h1.714
	V5.133C6.857,4.505,7.371,3.99,8,3.99s1.143,0.514,1.143,1.143v1.714h1.714C11.486,6.847,12,7.362,12,7.99
	S11.486,9.133,10.857,9.133"/>
</svg>
