<?xml version="1.0" encoding="utf-8"?>
<!-- Generator: Adobe Illustrator 17.0.2, SVG Export Plug-In . SVG Version: 6.00 Build 0)  -->
<!DOCTYPE svg PUBLIC "-//W3C//DTD SVG 1.1//EN" "http://www.w3.org/Graphics/SVG/1.1/DTD/svg11.dtd">
<svg version="1.1" id="Layer_1" xmlns="http://www.w3.org/2000/svg" xmlns:xlink="http://www.w3.org/1999/xlink" x="0px" y="0px"
	 width="18.13px" height="15.295px" viewBox="0 0 18.13 15.295" enable-background="new 0 0 18.13 15.295" xml:space="preserve">
<g>
	<path fill="#FD7037" d="M1.521,3h15.088c0.829,0,1.5-0.672,1.5-1.5S17.437,0,16.609,0H1.521c-0.829,0-1.5,0.672-1.5,1.5
		S0.692,3,1.521,3z"/>
	<path fill="#FD7037" d="M16.609,6.147H1.521c-0.829,0-1.5,0.672-1.5,1.5s0.671,1.5,1.5,1.5h15.088c0.829,0,1.5-0.672,1.5-1.5
		S17.437,6.147,16.609,6.147z"/>
	<path fill="#FD7037" d="M16.609,12.295H1.521c-0.829,0-1.5,0.672-1.5,1.5s0.671,1.5,1.5,1.5h15.088c0.829,0,1.5-0.672,1.5-1.5
		S17.437,12.295,16.609,12.295z"/>
</g>
</svg>
