<?xml version="1.0" encoding="utf-8"?>
<!-- Generator: Adobe Illustrator 17.0.2, SVG Export Plug-In . SVG Version: 6.00 Build 0)  -->
<!DOCTYPE svg PUBLIC "-//W3C//DTD SVG 1.1//EN" "http://www.w3.org/Graphics/SVG/1.1/DTD/svg11.dtd">
<svg version="1.1" id="Layer_1" xmlns="http://www.w3.org/2000/svg" xmlns:xlink="http://www.w3.org/1999/xlink" x="0px" y="0px"
	 width="16.877px" height="16.126px" viewBox="0 0 16.877 16.126" enable-background="new 0 0 16.877 16.126" xml:space="preserve">
<path fill="#127CC1" d="M16.829,5.795c-0.114-0.309-0.407-0.514-0.737-0.514h-5.317L9.181,0.535C9.075,0.221,8.786,0.007,8.456,0
	C8.142,0.016,7.827,0.192,7.707,0.499L5.848,5.281H0.784c-0.33,0-0.625,0.207-0.738,0.519C-0.066,6.11,0.03,6.458,0.284,6.668
	l4.025,3.329L2.95,15.142c-0.082,0.311,0.034,0.64,0.292,0.832c0.259,0.189,0.607,0.202,0.88,0.034l4.323-2.695l4.307,2.695
	c0.127,0.079,0.272,0.119,0.416,0.119c0.164,0,0.327-0.051,0.465-0.152c0.259-0.19,0.375-0.52,0.293-0.832l-1.345-5.095l4.017-3.384
	C16.85,6.452,16.942,6.105,16.829,5.795z"/>
</svg>
