<?xml version="1.0" encoding="utf-8"?>
<!-- Generator: Adobe Illustrator 17.0.2, SVG Export Plug-In . SVG Version: 6.00 Build 0)  -->
<!DOCTYPE svg PUBLIC "-//W3C//DTD SVG 1.1//EN" "http://www.w3.org/Graphics/SVG/1.1/DTD/svg11.dtd">
<svg version="1.1" id="Layer_1" xmlns="http://www.w3.org/2000/svg" xmlns:xlink="http://www.w3.org/1999/xlink" x="0px" y="0px"
	 width="15.981px" height="15.99px" viewBox="0 0 15.981 15.99" enable-background="new 0 0 15.981 15.99" xml:space="preserve">
<path fill="#4DD282" d="M13.647,2.333c-3.111-3.111-8.202-3.111-11.314,0s-3.111,8.202,0,11.314s8.202,3.111,11.314,0
	S16.758,5.445,13.647,2.333z M12.001,7.022l-4.059,4.058c-0.225,0.225-0.52,0.337-0.813,0.337s-0.589-0.112-0.813-0.337L4.139,8.904
	c-0.449-0.449-0.449-1.178,0-1.627s1.178-0.449,1.627,0L7.128,8.64l3.245-3.245c0.449-0.449,1.178-0.449,1.627,0
	S12.45,6.573,12.001,7.022z"/>
</svg>
