<?xml version="1.0" encoding="utf-8"?>
<!-- Generator: Adobe Illustrator 17.0.2, SVG Export Plug-In . SVG Version: 6.00 Build 0)  -->
<!DOCTYPE svg PUBLIC "-//W3C//DTD SVG 1.1//EN" "http://www.w3.org/Graphics/SVG/1.1/DTD/svg11.dtd">
<svg version="1.1" id="Layer_1" xmlns="http://www.w3.org/2000/svg" xmlns:xlink="http://www.w3.org/1999/xlink" x="0px" y="0px"
	 width="25.079px" height="20.92px" viewBox="0 0 25.079 20.92" enable-background="new 0 0 25.079 20.92" xml:space="preserve">
<g>
	<path fill="#FD7037" d="M22.579,6.962c-1.381,0-2.5,1.119-2.5,2.5v6.458H12.54H5V9.462c0-1.381-1.119-2.5-2.5-2.5S0,8.081,0,9.462
		v8.958c0,1.381,1.119,2.5,2.5,2.5h10.04h10.039c1.381,0,2.5-1.119,2.5-2.5V9.462C25.079,8.081,23.96,6.962,22.579,6.962z"/>
	<path fill="#FD7037" d="M11.629,12.578c0.235,0.254,0.565,0.397,0.911,0.397s0.677-0.144,0.912-0.397l3.742-4.033
		c0.336-0.362,0.426-0.89,0.228-1.343c-0.197-0.453-0.646-0.746-1.14-0.746h-1.277V0.695C15.005,0.311,14.694,0,14.311,0h-3.542
		c-0.384,0-0.695,0.311-0.695,0.695v5.761H8.797c-0.494,0-0.942,0.293-1.14,0.746c-0.198,0.453-0.108,0.98,0.229,1.343
		L11.629,12.578z"/>
</g>
</svg>
